<?xml version="1.0" encoding="UTF-8" standalone="no"?><!-- Generator: Gravit.io --><svg xmlns="http://www.w3.org/2000/svg" xmlns:xlink="http://www.w3.org/1999/xlink" style="isolation:isolate" viewBox="0 0 400 400" width="400pt" height="400pt"><g><path d=" M 260.5 252.449 L 272.5 240.449 L 337.5 304.449 Q 306.4 345.339 245.5 356.449 L 245.5 339.449 Q 286.951 329.213 313.5 305.449 L 260.5 252.449 Z " fill="rgb(255,255,255)" vector-effect="non-scaling-stroke" stroke-width="1" stroke="rgb(255,255,255)" stroke-linejoin="miter" stroke-linecap="square" stroke-miterlimit="3"/><path d=" M 272.5 288.449 L 286.5 301.449 Q 264.562 317.375 227.5 321.449 L 227.5 358.449 Q 167.708 361.108 127.5 329.449 L 139.5 317.449 Q 168.528 337.427 210.5 341.449 L 210.5 303.449 Q 251.61 305.381 272.5 288.449 Z " fill="rgb(255,255,255)" vector-effect="non-scaling-stroke" stroke-width="1" stroke="rgb(255,255,255)" stroke-linejoin="miter" stroke-linecap="square" stroke-miterlimit="3"/><path d=" M 193.5 318.449 L 193.5 301.449 Q 161.293 291.418 140.5 269.449 L 114.5 295.449 Q 87.191 263.736 79.5 226.449 L 62.5 226.449 Q 68.936 277.761 113.5 319.449 L 140.5 292.449 Q 160.963 312.629 193.5 318.449 Z " fill="rgb(255,255,255)" vector-effect="non-scaling-stroke" stroke-width="1" stroke="rgb(255,255,255)" stroke-linejoin="miter" stroke-linecap="square" stroke-miterlimit="3"/><path d=" M 97.5 209.449 L 62.5 209.449 L 62.5 191.449 L 97.5 191.449 Q 100.82 157.055 117.5 133.449 L 130.5 145.449 Q 99.339 199.547 129.5 254.449 L 117.5 267.449 Q 100.396 239.209 97.5 209.449 Z " fill="rgb(255,255,255)" vector-effect="non-scaling-stroke" stroke-width="1" stroke="rgb(255,255,255)" stroke-linejoin="miter" stroke-linecap="square" stroke-miterlimit="3"/><path d=" M 140.5 131.449 L 114.5 105.449 Q 86.533 134.795 79.5 175.449 L 62.5 175.449 Q 69.565 120.28 114.5 81.449 L 140.5 107.449 Q 168.833 85.131 193.5 81.449 L 193.5 100.449 Q 159.334 109.232 140.5 131.449 Z " fill="rgb(255,255,255)" vector-effect="non-scaling-stroke" stroke-width="1" stroke="rgb(255,255,255)" stroke-linejoin="miter" stroke-linecap="square" stroke-miterlimit="3"/><path d=" M 285.5 98.449 L 272.5 112.449 Q 247.063 94.033 210.5 96.449 L 210.5 58.449 Q 173.249 61.064 140.5 82.449 L 127.5 70.449 Q 171.279 39.603 227.5 41.449 L 227.5 79.449 Q 257.01 80.188 285.5 98.449 Z " fill="rgb(255,255,255)" vector-effect="non-scaling-stroke" stroke-width="1" stroke="rgb(255,255,255)" stroke-linejoin="miter" stroke-linecap="square" stroke-miterlimit="3"/><path d=" M 272.5 160.449 L 260.5 148.449 L 313.5 94.449 Q 279.643 67.179 244.5 61.449 L 244.5 42.449 Q 303.904 54.658 337.5 94.449 L 272.5 160.449 Z " fill="rgb(255,255,255)" vector-effect="non-scaling-stroke" stroke-width="1" stroke="rgb(255,255,255)" stroke-linejoin="miter" stroke-linecap="square" stroke-miterlimit="3"/><path d=" M 245.5 261.449 Q 193.648 277.625 163.5 236.449 Q 139.702 197.794 167.5 158.449 Q 202.047 121.867 244.5 139.449 L 258.5 125.449 Q 207.337 103.546 167.5 133.449 Q 135.752 158.217 135.5 200.449 Q 131.915 231.121 162.5 263.449 Q 205.188 299.58 256.5 274.449 L 245.5 261.449 Z " fill="rgb(255,255,255)" vector-effect="non-scaling-stroke" stroke-width="1" stroke="rgb(255,255,255)" stroke-linejoin="miter" stroke-linecap="square" stroke-miterlimit="3"/></g></svg>